# xmcd CD database file
#
# Track frame offsets:
#	150
#	7322
#	25612
#	39082
#	54467
#	70852
#	75115
#	97357
#	113175
#	127017
#
# Disc length: 1902 seconds
#
# Revision: 0
# Processed by: cddbd v1.5PL3 Copyright (c) Steve Scherf et al.
# Submitted via: CDex 1.50
#
DISCID=7a076c0a
DTITLE=ハムちゃんず - とっとこハム太郎ソングコレクション
DYEAR=2000
DGENRE=Anime
TTITLE0=ハム太郎とっとこうた
TTITLE1=メリーとっとこクリスマス
TTITLE2=それゆけ！ひまわり組
TTITLE3=なかよしくるるん
TTITLE4=風の歌をうたおう
TTITLE5=ハム太郎えかきうた
TTITLE6=ぼくらライバル！ＭＭぼーいず
TTITLE7=２００％のジュモン
TTITLE8=ふしぎなハム太郎
TTITLE9=あしたもあそぼう
EXTD=YEAR: 2000
EXTT0=
EXTT1=
EXTT2=
EXTT3=
EXTT4=
EXTT5=
EXTT6=
EXTT7=
EXTT8=
EXTT9=
PLAYORDER=
